<?xml version="1.0" encoding="utf-8"?>
<!-- Generator: Adobe Illustrator 25.3.1, SVG Export Plug-In . SVG Version: 6.00 Build 0)  -->
<svg version="1.1" id="Ebene_1" xmlns="http://www.w3.org/2000/svg" x="0px"
     y="0px"
     viewBox="0 0 120.9 45.8" style="enable-background:new 0 0 120.9 45.8;" xml:space="preserve">
<style type="text/css">
	.st0{display:none;}
	.st1{display:inline;fill:none;}
	.st2{display:inline;}
	.st3{fill:#FFFFFF;}
	.st4{fill:#003764;}
	.st5{fill:#01B1C9;}
</style>
    <g transform="translate(-1059.238 -328.723)">
	<g transform="translate(1059.238 328.5)" class="st0">
		<line class="st1" x1="149.1" y1="45.7" x2="-33.4" y2="45.7"/>
        <line class="st1" x1="149.1" y1="0.7" x2="-33.4" y2="0.7"/>
        <line class="st1" x1="0.2" y1="-43.8" x2="0.2" y2="90.7"/>
        <g transform="translate(0 0.223)" class="st2">
			<rect x="-33.4" y="-44.3" class="st3" width="182.3" height="134.6"/>
		</g>
	</g>
        <g transform="translate(241.238 -20)">
		<g transform="translate(851.75 393.503)">
			<g transform="translate(0)">
				<path class="st4" d="M0.5-13.7c0,3.2,0,6.4,0,9.6c0,0.5,0,1.1-0.2,1.6C0.2-1.6-0.5-0.8-1.4-0.6c-1.5,0.4-3.1,0.7-4.7,0.9
					c-3.1,0.4-6.2,0.5-9.2,0.5c-2.9,0-5.8-0.5-8.5-1.7c-3.3-1.5-5.9-4.1-7.3-7.3c-1-2.2-1.6-4.5-1.9-6.9c-0.4-3.3-0.5-6.7-0.3-10.1
					c0.1-2.6,0.5-5.2,1.2-7.7c0.7-2.6,2.1-4.9,4.1-6.8c1.9-1.7,4.1-2.9,6.6-3.6c1.8-0.5,3.7-0.8,5.5-0.9c2.4-0.1,4.9,0,7.3,0.3
					c2.3,0.3,4.5,0.7,6.7,1.3c0.8,0.2,1,0.5,1,1.3c0,1.4,0,2.8,0,4.2c0,0.8-0.2,1-1,1c-2-0.1-4-0.3-5.9-0.4c-2.2-0.1-4.5-0.1-6.7,0
					c-1.7,0.1-3.3,0.6-4.8,1.4c-1.6,1-2.8,2.5-3.4,4.3c-0.5,1.6-0.8,3.3-0.9,5c-0.1,2.3-0.2,4.5-0.1,6.8c0,2.1,0.4,4.2,1,6.2
					c0.6,2,2,3.7,3.8,4.7c1.4,0.7,2.9,1.1,4.4,1.1c1.7,0.1,3.4,0,5.1-0.3c0.2,0,0.2-0.1,0.2-0.3c0-3.4,0-6.7,0-10.1
					c0-0.2-0.1-0.2-0.3-0.2c-1.6,0-3.3,0-4.9,0c-0.1,0-0.2,0-0.3,0c-0.5,0-0.9-0.3-1-0.8c0-0.1,0-0.1,0-0.2c0-1.1,0-2.1,0-3.2
					c0-0.8,0-1.5,0-2.3c0-0.8,0.3-1.1,1.1-1.1c2.9,0,5.7,0,8.6,0h5.2c0.9,0,1.2,0.3,1.2,1.2c0,1.4,0,2.8,0,4.2L0.5-13.7z"/>
                <path class="st4" d="M50.1-29.1v0.3c0,9.2,0,18.4,0,27.6c0,0.1,0,0.3,0,0.4c0,0.4-0.4,0.8-0.8,0.8c-0.1,0-0.2,0-0.4,0
					c-2.4,0-4.9,0-7.3,0c-0.1,0-0.3,0-0.4,0c-0.4,0-0.7-0.3-0.7-0.7c0-0.2,0-0.3,0-0.5c0-13.7,0-27.4,0-41.1c0-0.2,0-0.4,0-0.5
					c0.1-0.3,0.3-0.6,0.7-0.7c0.1,0,0.3,0,0.4,0c3.2,0,6.5,0,9.7,0c0.3,0,0.5,0,0.8,0.1c0.8,0.1,1.4,0.7,1.6,1.4
					c1.3,3.1,2.6,6.2,3.9,9.3l6,14.2c0.2,0.5,0.4,1.1,0.7,1.6c0.4,1,1.1,1.8,2.1,2.3c0.4,0.2,0.8,0.3,1.3,0.3c2.4,0,4.7,0,7.1,0
					c0.2,0,0.3,0,0.3,0.3c0,4.3,0,8.6,0,12.8C75-0.3,74.7,0,73.8,0h-9.6c-0.2,0-0.3,0-0.5,0c-0.9,0-1.7-0.6-2-1.4
					c-1.2-2.8-2.3-5.5-3.5-8.3c-2.7-6.4-5.4-12.7-8.1-19.1C50.2-28.9,50.2-29,50.1-29.1z"/>
                <path class="st4" d="M7.3-18.8c0-5.3,0-10.6,0-16c0-1.3,0.1-2.5,0.3-3.7c0.4-2.6,2.4-4.7,5-5.2c1.5-0.4,3.1-0.6,4.7-0.5
					c3.1,0,6.3,0,9.4,0.2c2.5,0.1,4.9,0.3,7.4,0.5c0.8,0.1,1.1,0.4,1.1,1.2c0,1.5,0,3.1,0,4.6c0.1,0.5-0.3,0.9-0.8,1
					c-0.1,0-0.2,0-0.2,0c-4.6,0-9.3,0-13.9,0c-0.5,0-1,0-1.5,0.2c-1,0.2-1.7,1.1-1.8,2c-0.1,0.4-0.1,0.8-0.1,1.2c0,2.5,0,4.9,0,7.4
					c0,0.3,0.1,0.3,0.3,0.3c4.9,0,9.9,0,14.8,0c1,0,1.3,0.2,1.3,1.3c0,1.7,0,3.4,0,5c0,0.1,0,0.3,0,0.4c0,0.5-0.4,0.9-0.8,0.9
					c-0.1,0-0.3,0-0.4,0c-4.9,0-9.9,0-14.8,0c-0.3,0-0.3,0.1-0.3,0.3c0,5.5,0,10.9,0,16.4c0,0.1,0,0.3,0,0.4c0,0.5-0.4,0.8-0.8,0.8
					c0,0,0,0,0,0c-0.1,0-0.2,0-0.4,0c-2.4,0-4.8,0-7.3,0C8.3,0,8.1,0,8,0c-0.4,0-0.6-0.3-0.7-0.7c0-0.2,0-0.4,0-0.5
					C7.3-7.1,7.3-13,7.3-18.8z"/>
                <path class="st4" d="M75-34c0,2.8,0,5.6,0,8.4c0,0.3-0.1,0.3-0.4,0.3c-0.5,0-0.9,0-1.4,0c-0.8,0-1.5-0.5-1.8-1.3
					c-0.9-2.1-1.7-4.3-2.6-6.4c-1.1-2.9-2.3-5.8-3.4-8.6c-0.1-0.4-0.2-0.8-0.1-1.2c0.1-0.3,0.3-0.6,0.7-0.6c0.1,0,0.2,0,0.3,0
					c2.6,0,5.2,0,7.8,0c0.5,0,0.9,0.4,0.9,0.8c0,0,0,0.1,0,0.1c0,0.3,0,0.6,0,1C75-39.1,75-36.6,75-34z"/>
                <path class="st5" d="M76.1-19.9c0-3,2.4-5.4,5.4-5.4c0,0,0,0,0,0c3,0,5.4,2.4,5.4,5.3c0,0,0,0,0,0c0,3-2.4,5.4-5.4,5.4
					C78.5-14.5,76.1-16.9,76.1-19.9C76.1-19.9,76.1-19.9,76.1-19.9z"/>
			</g>
		</g>
	</g>
</g>
</svg>
