<svg viewBox="0 0 218 67" width="218" height="67" xmlns="http://www.w3.org/2000/svg"><g fill="none" fill-rule="evenodd"><path d="M79.198 41.305c-9.727 8.678-20.892 14.06-37.524 14.06-15.415 0-27.08-4.998-37.133-14.06L.001 46.61c9.84 10.382 23.216 19.862 42.176 19.862 18.37 0 31.95-9.693 41.578-19.862l-4.557-5.305z" fill="#00B7FF"/><path d="M74.815 9.817c-.038-1.435-.582-2.482-1.62-3.14-1.039-.661-2.406-.994-4.081-.994-.63 0-1.22.053-1.787.166a4.636 4.636 0 0 0-1.537.576 3.183 3.183 0 0 0-1.097 1.104c-.267.462-.41 1.036-.41 1.736 0 .659.25 1.19.74 1.594.493.408 1.144.764 1.948 1.076.803.313 1.702.607 2.69.88.984.278 1.971.597 2.96.966.842.333 1.664.7 2.47 1.103.802.406 1.502.9 2.107 1.489a6.97 6.97 0 0 1 1.457 2.088c.363.812.541 1.783.541 2.922 0 1.65-.365 3.068-1.09 4.243a9.4 9.4 0 0 1-2.857 2.92c-1.167.77-2.513 1.335-4.026 1.679-1.518.349-3.05.523-4.578.523-1.647 0-3.183-.155-4.606-.466-1.43-.312-2.674-.849-3.732-1.602-1.058-.75-1.901-1.76-2.525-3.028-.62-1.265-.95-2.871-.983-4.818h5.919c-.07 1.794.499 3.073 1.703 3.828 1.207.753 2.725 1.129 4.55 1.129.656 0 1.332-.066 2.028-.194a7.146 7.146 0 0 0 1.919-.632 3.927 3.927 0 0 0 1.455-1.24c.38-.533.575-1.203.575-2.011 0-.733-.265-1.34-.792-1.821-.533-.471-1.206-.886-2.03-1.237a23.9 23.9 0 0 0-2.799-.964 39.993 39.993 0 0 1-3.043-.992 16.137 16.137 0 0 1-2.385-1.047 8.725 8.725 0 0 1-2.003-1.458 6.19 6.19 0 0 1-1.372-2.012c-.326-.775-.492-1.687-.492-2.757 0-1.541.34-2.861 1.016-3.961a8.265 8.265 0 0 1 2.66-2.702c1.096-.698 2.341-1.21 3.729-1.545a18.442 18.442 0 0 1 4.275-.494c1.538 0 2.98.138 4.33.416 1.354.276 2.533.758 3.54 1.458 1.002.695 1.792 1.634 2.362 2.806.559 1.178.829 2.649.788 4.413h-5.917zM85.1 35.99c3.63-3.732 5.658-6.448 5.658-6.448L85.672 1.493h6.582l2.855 22.321s6.84-11.496 10.913-22.32c5.516-.04 2.813-.04 6.689 0-8.775 20.325-19.249 34.835-23.388 39.333M134.424 10.918c.07-1.765-.402-3.077-1.429-3.942-1.02-.861-2.412-1.293-4.165-1.293-1.568 0-2.94.402-4.115 1.211a10.263 10.263 0 0 0-2.902 3.085 14.797 14.797 0 0 0-1.729 4.107c-.38 1.488-.573 2.909-.573 4.267 0 1.069.108 2.048.325 2.947.217.898.575 1.68 1.07 2.345.492.661 1.143 1.182 1.947 1.566.804.388 1.794.58 2.961.58 1.868 0 3.391-.498 4.578-1.485 1.187-.994 2.04-2.369 2.552-4.135h6.252c-1.027 3.674-2.744 6.357-5.155 8.045-2.41 1.688-5.504 2.532-9.267 2.532-1.863 0-3.51-.294-4.938-.88-1.422-.59-2.624-1.422-3.59-2.508-.97-1.079-1.71-2.368-2.221-3.855-.517-1.49-.772-3.13-.772-4.932 0-2.385.37-4.665 1.098-6.83.734-2.17 1.792-4.065 3.182-5.7 1.391-1.638 3.08-2.931 5.072-3.884 1.996-.955 4.253-1.433 6.773-1.433 1.57 0 3.055.216 4.437.659 1.393.44 2.598 1.082 3.626 1.929 1.021.847 1.822 1.912 2.41 3.194.588 1.283.863 2.755.824 4.41h-6.251zM157.233 30.748c-3.948 0-6.997-1.073-9.152-3.224-2.162-2.144-3.242-5.223-3.242-9.221 0-2.355.39-4.587 1.155-6.697.766-2.112 1.857-3.978 3.265-5.593 1.405-1.618 3.107-2.9 5.098-3.855 1.99-.955 4.215-1.434 6.666-1.434 3.949 0 6.998 1.039 9.153 3.115 2.162 2.073 3.24 5.115 3.24 9.117 0 2.498-.37 4.83-1.096 6.996-.735 2.165-1.806 4.048-3.21 5.646a15.228 15.228 0 0 1-5.103 3.776c-1.99.914-4.247 1.374-6.774 1.374m3.399-25.065c-1.605 0-3.005.402-4.189 1.21a10.778 10.778 0 0 0-2.992 3.06 13.512 13.512 0 0 0-1.778 4.103 17.785 17.785 0 0 0-.577 4.404c0 2.098.519 3.841 1.564 5.239 1.04 1.398 2.693 2.09 4.963 2.09 1.608 0 3.003-.393 4.19-1.181a10.506 10.506 0 0 0 2.991-3.03c.804-1.231 1.397-2.608 1.781-4.133.383-1.524.579-3.003.579-4.434 0-2.093-.522-3.841-1.561-5.235-1.048-1.397-2.698-2.093-4.971-2.093M183.01 1.494h5.924l-1.154 5.565.11.11c.44-.77.975-1.542 1.62-2.316.637-.77 1.34-1.455 2.111-2.064a10.9 10.9 0 0 1 2.496-1.487 7.037 7.037 0 0 1 2.825-.579c.508 0 1.014.01 1.504.029.498.023.995.063 1.513.136l-1.322 6.006c-.364-.071-.729-.13-1.095-.165a12.601 12.601 0 0 0-1.1-.055c-1.606 0-3.004.285-4.19.854a8.744 8.744 0 0 0-3.017 2.342 12.524 12.524 0 0 0-2.003 3.416 24.075 24.075 0 0 0-1.204 4.073l-2.633 12.62h-6.254l5.87-28.485z" fill="#878787"/><g fill="#878787"><path d="M102.18 36.772h1.154l.53 4.563c.072.616.121 1.11.18 1.824h.024a20.34 20.34 0 0 1 .736-1.667l1.646-3.38-.18-1.34h1.06l.553 4.576c.085.628.134 1.134.192 1.811h.025c.204-.616.421-1.127.687-1.692l2.175-4.695h1.158l-3.9 8.003h-.866l-.47-3.5a25.417 25.417 0 0 1-.205-1.629h-.024a22.81 22.81 0 0 1-.77 1.663l-1.732 3.466h-.88l-1.093-8.003zM112.6 39.018h1.048l-1.216 5.71h-1.047l1.215-5.71zm.205-1.777c0-.47.36-.758.745-.758.398 0 .627.25.627.589 0 .46-.373.763-.758.763s-.614-.257-.614-.594zM115.284 39.018h.843l-.146 1.134h.024c.373-.785.953-1.28 1.613-1.28a1.2 1.2 0 0 1 .7.204l-.447.907a1.094 1.094 0 0 0-.494-.12c-.66 0-1.396.746-1.781 2.535l-.48 2.33h-1.048l1.216-5.71zM120.302 46.272c.482.28.938.399 1.42.399 1.13 0 1.65-.616 1.925-1.882l.204-.907h-.024c-.565.711-1.24.953-1.78.953-.927 0-1.602-.616-1.602-1.943 0-2.041 1.145-4.019 3.574-4.019.724 0 1.445.157 1.854.325l-1.215 5.71c-.324 1.57-1 2.68-2.973 2.68a3.86 3.86 0 0 1-1.756-.433l.373-.883zm4.032-4.769l.348-1.628a2.751 2.751 0 0 0-.806-.11c-1.491 0-2.37 1.452-2.37 2.934 0 .689.228 1.259.854 1.259.553 0 1.564-.487 1.974-2.455zM126.523 42.41c0-2.004 1.252-3.537 2.985-3.537 1.262 0 1.9.785 1.9 1.867 0 .411-.107.92-.251 1.33l-3.586.05c-.012.097-.012.204-.012.29 0 1.002.577 1.57 1.42 1.57.577 0 1.082-.196 1.552-.436l.287.773c-.553.34-1.298.533-1.937.533-1.408 0-2.358-.907-2.358-2.44zm3.754-1.11c.061-.205.098-.423.098-.591 0-.487-.23-.993-.977-.993-.816 0-1.503.738-1.696 1.618l2.575-.034zM133.78 36.18h1.047l-.555 2.644c-.083.362-.18.712-.3 1.098h.024c.434-.604 1.094-1.051 1.818-1.051.926 0 1.647.677 1.647 1.958 0 2.33-1.647 4.019-3.874 4.019-.482 0-1.203-.108-1.588-.252l1.78-8.416zm.06 7.775c1.443 0 2.551-1.256 2.551-3.019 0-.554-.253-1.158-.916-1.158-.336 0-.745.18-1.094.555-.348.361-.638.916-.818 1.75l-.373 1.787c.217.06.47.085.65.085zM138.28 42.41c0-2.004 1.253-3.537 2.985-3.537 1.265 0 1.9.785 1.9 1.867 0 .411-.107.92-.253 1.33l-3.584.05c-.012.097-.012.204-.012.29 0 1.002.577 1.57 1.42 1.57.578 0 1.082-.196 1.552-.436l.288.773c-.553.34-1.299.533-1.937.533-1.408 0-2.358-.907-2.358-2.44zm3.755-1.11c.06-.205.097-.423.097-.591 0-.487-.229-.993-.977-.993-.816 0-1.503.738-1.695 1.618l2.575-.034zM144.875 39.018h.843l-.144 1.134h.022c.482-.711 1.289-1.28 2.131-1.28.758 0 1.311.422 1.311 1.402 0 .228-.024.54-.144 1.11l-.71 3.344h-1.049l.712-3.31c.085-.42.122-.745.122-.894 0-.506-.266-.712-.639-.712-.421 0-.998.27-1.457.885-.29.374-.492.829-.662 1.604l-.504 2.427h-1.048l1.216-5.71zM154.2 36.772h1.06l-1.685 7.956h-1.06zM158.39 37.652h-2.334l.192-.882h5.74l-.36.882h-2.179l-1.493 7.077h-1.07zM163.6 42.41c0-2.004 1.252-3.537 2.984-3.537 1.262 0 1.9.785 1.9 1.867 0 .411-.107.92-.25 1.33l-3.587.05c-.012.097-.012.204-.012.29 0 1.002.577 1.57 1.42 1.57.578 0 1.082-.196 1.552-.436l.288.773c-.553.34-1.299.533-1.937.533-1.408 0-2.358-.907-2.358-2.44zm3.754-1.11c.06-.205.097-.423.097-.591 0-.487-.229-.993-.977-.993-.816 0-1.503.738-1.695 1.618l2.575-.034zM170.194 39.018h1.047l-1.216 5.71h-1.047l1.216-5.71zm.204-1.777c0-.47.36-.758.746-.758.397 0 .626.25.626.589 0 .46-.373.763-.758.763s-.614-.257-.614-.594zM172.877 39.018h.843l-.146 1.134h.024c.483-.711 1.289-1.28 2.132-1.28.758 0 1.31.422 1.31 1.402 0 .228-.024.54-.143 1.11l-.712 3.344h-1.047l.711-3.31c.086-.42.12-.745.12-.894 0-.506-.263-.712-.636-.712-.422 0-1 .27-1.457.885-.29.374-.492.829-.663 1.604l-.504 2.427h-1.048l1.216-5.71zM180.399 41.529c0-2.535 1.793-4.833 4.692-4.833.843 0 1.65.196 2.288.487l-.217.916c-.507-.278-1.265-.493-1.998-.493-2.227 0-3.635 1.725-3.635 3.789 0 1.752 1.023 2.534 2.334 2.534.58 0 1.145-.097 1.518-.29l.577-2.702h1.058l-.71 3.332c-.54.316-1.527.577-2.526.577-1.961 0-3.381-1.156-3.381-3.317M188.137 42.41c0-2.004 1.252-3.537 2.984-3.537 1.262 0 1.9.785 1.9 1.867 0 .411-.107.92-.253 1.33l-3.583.05c-.013.097-.013.204-.013.29 0 1.002.578 1.57 1.42 1.57.578 0 1.082-.196 1.553-.436l.287.773c-.553.34-1.298.533-1.937.533-1.408 0-2.358-.907-2.358-2.44zm3.754-1.11c.059-.205.098-.423.098-.591 0-.487-.23-.993-.977-.993-.819 0-1.503.738-1.696 1.618l2.575-.034zM193.552 43.592c.36.22.843.386 1.347.386.556 0 1.084-.252 1.084-.797 0-1-1.854-1.083-1.854-2.655 0-.907.639-1.655 1.937-1.655.41 0 .94.064 1.433.257l-.168.853c-.302-.117-.795-.25-1.216-.25-.504 0-.926.216-.926.749 0 1.014 1.852 1.085 1.852 2.677 0 1.078-.914 1.694-2.105 1.694-.685 0-1.262-.172-1.732-.462l.348-.797zM199.063 39.018h1.048l-1.216 5.71h-1.047l1.215-5.71zm.205-1.777c0-.47.36-.758.745-.758.397 0 .627.25.627.589 0 .46-.373.763-.758.763s-.614-.257-.614-.594zM200.796 42.446c0-1.993 1.348-3.574 3.284-3.574.556 0 1.06.12 1.445.29l-.204.88a2.744 2.744 0 0 0-1.226-.288c-1.218 0-2.239 1.086-2.239 2.584 0 .978.48 1.628 1.455 1.628.577 0 1.072-.205 1.444-.423l.278.763c-.446.313-1.203.543-1.842.543-1.493 0-2.395-.954-2.395-2.403M207.667 36.18h1.036l-.614 2.884a9.148 9.148 0 0 1-.302 1.088h.024c.47-.724 1.264-1.281 2.095-1.281.77 0 1.323.423 1.323 1.4 0 .23-.036.546-.144 1.113l-.711 3.344h-1.048l.7-3.305c.097-.425.119-.753.119-.897 0-.506-.263-.712-.636-.712-.421 0-1.01.289-1.469.917-.275.374-.48.834-.638 1.57l-.517 2.427h-1.047l1.83-8.548zM212.445 43.701a3.4 3.4 0 0 1 .082-.699l.663-3.14h-.938l.18-.844h.95l.278-1.293 1.106-.313-.348 1.606h1.552l-.336.843h-1.396l-.687 3.249a1.367 1.367 0 0 0-.047.374c0 .315.156.484.505.484.372 0 .72-.169.962-.303l.266.772a3.04 3.04 0 0 1-1.482.41c-.926 0-1.31-.469-1.31-1.146M216.09 44.22c0-.424.303-.736.697-.736.351 0 .58.288.58.616 0 .41-.302.723-.699.723-.348 0-.577-.276-.577-.604"/></g></g></svg>
